<svg version="1.1" id="Layer_1" xmlns:x="ns_extend;" xmlns:i="ns_ai;" xmlns:graph="ns_graphs;" xmlns="http://www.w3.org/2000/svg" xmlns:xlink="http://www.w3.org/1999/xlink" x="0px" y="0px" viewBox="0 0 462.3 100" style="enable-background:new 0 0 462.3 100;" xml:space="preserve">
 <style type="text/css">
  .st0{fill:#FFFFFF;}
 </style>
 <metadata>
  <sfw xmlns="ns_sfw;">
   <slices>
   </slices>
   <sliceSourceBounds bottomLeftOrigin="true" height="100" width="462.3" x="-212" y="-211.1">
   </sliceSourceBounds>
  </sfw>
 </metadata>
 <g>
  <path class="st0" d="M40.8,56.5h17.1l5,3.2H40L29.8,91.5C18.4,87.1,7.9,76.9,3.5,65.4c-4.7-11.1-4.7-25.1,0.1-36.2
		C8.1,17.8,18.9,7.4,30.4,3.1C39.5-0.6,51.6-1,61.2,2c11,3.2,21.4,11,27.5,21.4c6.8,11.3,8.7,25.7,4.6,38.6
		c-2.6,8.6-7.9,16.8-15.3,22.6L65.2,63.4l17.6,9.8c0.1,0,0.1-0.1,0.1-0.2L59.9,53.1l29.8,4.5c0.1,0,0.1,0,0.1-0.1l-0.2-0.1
		l-28.1-9.9l29.2-7.1c0.1,0,0.1-0.1,0-0.1l-30,2l23.5-17.8c0.1-0.1-0.2-0.1-0.2,0L57.7,37.9l14.6-25.7c0,0,0-0.1-0.1-0.1l-19,22.3
		l3.7-29.3C56.8,5,56.7,5,56.6,5l-8.7,28.5L40.2,4.2c-0.1,0-0.2-0.1-0.2,0l2.1,30.4L24.1,11.1c-0.1-0.1-0.1,0-0.2,0l13.7,26
		L11.8,23.1c0,0-0.1,0.1-0.1,0.1l23,18.9L5.3,38.9c-0.1,0.1-0.1,0.1,0,0.2l28.4,8.3L5.4,55.7c-0.1,0-0.1,0.1,0,0.2l29.2-3.4L11.7,72
		c-0.1,0-0.1,0.1,0,0.2L12,72l18.3-9.6l4.3-6.9h4.9l-3.4-2.4L47.5,35L40.8,56.5L40.8,56.5z">
  </path>
  <polygon class="st0" points="125.3,80.5 102.5,80.5 120.8,15.1 167.7,15.1 163.2,30.6 139.3,30.6 136.2,41.7 160.1,41.7 156.1,56 
		132.2,56 	">
  </polygon>
  <path class="st0" d="M178.3,80.5h-22.6l13.4-47.8h22.6L178.3,80.5z M192.9,28.1h-22.6l3.7-13.1h22.6L192.9,28.1z">
  </path>
  <path class="st0" d="M236.9,80.5h-22.2l1.6-5.3c-4.5,3.8-9,6.5-16.3,6.5c-7.4,0-12-3.5-12-11c0-8.2,3.2-20.5,8.1-29.1
		c3.5-6.4,9.8-9.7,17.3-9.7c6.4,0,11.1,2.8,13,6.3l6.3-23h22.6L236.9,80.5z M219.9,46.9c-2,0-4,0.6-5.2,3.4c-1.7,4-3.2,8-3.2,11.9
		c0,1.8,1.3,3.4,3.5,3.4c1.8,0,2.9-0.5,3.9-1.1l4.6-15.7C222.7,47.7,221.3,46.9,219.9,46.9">
  </path>
  <path class="st0" d="M300.8,59.6h-31.2c-0.6,2.5-1.2,4.3-1.2,6.3c0,1,0.2,3.4,3.3,3.4c3.2,0,4.6-1.2,5.9-5.9h22.2
		c-2.8,13.6-18.9,18.2-28.8,18.2c-13.4,0-23.8-1.9-23.8-14.8c0-7.1,3.6-18.8,8.3-25.1c5.7-7.5,15.6-10.3,24.7-10.3
		c14,0,23.1,2.9,23.1,14.8C303.2,49.3,302,55.7,300.8,59.6 M278.2,43.6c-2.8,0-4.7,1.9-6,6.7h9.3c0.3-1,0.6-2.5,0.6-3.3
		C282.1,44.4,280.5,43.6,278.2,43.6">
  </path>
  <polygon class="st0" points="323.5,80.5 300.9,80.5 319.2,15.1 341.8,15.1 	">
  </polygon>
  <path class="st0" d="M353.4,80.5h-22.6l13.4-47.8h22.6L353.4,80.5z M368,28.1h-22.6l3.7-13.1h22.6L368,28.1z">
  </path>
  <path class="st0" d="M408.6,32.7l2,10.8h-17.3l-5.1,18.1c-0.4,1.4-0.8,3.2-0.8,4.3c0,2.1,0.9,2.8,3.9,2.8h4.8l-3.3,11.7h-20.2
		c-6.7,0-9.2-3.2-9.2-8.2c0-2,0.3-4.2,1-6.7l12.3-43.6h22.6l-3,10.6H408.6z">
  </path>
  <polygon class="st0" points="102,87.8 107.6,87.8 104,99.6 98.4,99.6 	">
  </polygon>
  <polygon class="st0" points="121.7,87.8 129.9,87.8 132,95.7 132.1,95.7 134.5,87.8 139.4,87.8 135.8,99.5 127.9,99.6 125.6,91.2 
		125.5,91.2 123,99.5 118.1,99.5 	">
  </polygon>
  <polygon class="st0" points="150.1,87.8 156.3,87.8 157.3,95.2 163,87.8 168.8,87.8 159.3,99.5 152.4,99.6 	">
  </polygon>
  <polygon class="st0" points="179.6,87.8 192.4,87.8 191.7,90.2 184.3,90.2 183.6,92.6 190.5,92.6 189.8,94.9 182.9,94.9 
		182.2,97.2 189.6,97.2 188.9,99.6 176,99.6 	">
  </polygon>
  <polygon class="st0" points="234.6,90.7 230.2,90.7 231.1,87.8 245.5,87.8 244.7,90.7 240.3,90.7 237.6,99.5 231.9,99.5 	">
  </polygon>
  <polygon class="st0" points="257.2,87.8 265.7,87.8 266.1,95.7 266.2,95.7 271.3,87.8 279.8,87.8 276.3,99.6 271,99.6 273.7,90.7 
		273.7,90.7 267.3,99.6 261.9,99.6 261.1,90.7 261.1,90.7 258.4,99.5 253.6,99.5 	">
  </polygon>
  <polygon class="st0" points="315.7,87.8 323.9,87.8 326.1,95.7 326.1,95.7 328.5,87.8 333.4,87.8 329.8,99.6 321.8,99.5 
		319.6,91.2 319.6,91.2 317,99.5 312.1,99.5 	">
  </polygon>
  <polygon class="st0" points="346.9,90.7 342.5,90.7 343.4,87.8 357.8,87.8 356.9,90.7 352.5,90.7 349.9,99.5 344.2,99.5 	">
  </polygon>
  <path class="st0" d="M444.8,70.9c-3.4,0-6.1,2.8-6.1,6.1c0,3.4,2.8,6.1,6.1,6.1c3.4,0,6.1-2.8,6.1-6.1
		C451,73.6,448.2,70.9,444.8,70.9 M444.8,82.1c-2.8,0-5.1-2.3-5.1-5.1s2.3-5.1,5.1-5.1c2.8,0,5.1,2.3,5.1,5.1S447.6,82.1,444.8,82.1
		">
  </path>
  <path class="st0" d="M447.3,75.7c0-1.2-0.7-1.9-2.2-1.9h-2.4v6.3h1.1v-2.6h0.8l1.6,2.6h1.2l-1.7-2.7
		C446.6,77.4,447.3,76.8,447.3,75.7 M443.8,76.6v-1.8h0.8c0.7,0,1.5,0,1.5,0.9c0,0.9-0.8,0.9-1.5,0.9H443.8z">
  </path>
  <path class="st0" d="M209.7,91.4c-0.1-0.1-0.1-0.4-0.1-0.5c0.2-0.6,0.9-1,2.1-1c0.7,0,1.8,0.1,2.1,0.3c0.3,0.2,0.4,0.6,0.3,1h5
		c0.6-2.1-0.7-3.5-6.4-3.4c-5.4,0-8.4,1.2-9.2,3.7c-0.2,0.7-0.2,1.5,0.3,2c1.4,1.4,7.6,1.9,8.1,2.7c0.1,0.1,0.1,0.3,0.1,0.5
		c-0.3,0.9-1.6,1.2-2.8,1.2c-0.7,0-1.7-0.2-2-0.5c-0.3-0.3-0.3-0.8-0.1-1.1l-5.2,0c-0.5,1.8-0.7,3.7,6.5,3.7c6.1,0,8.9-1.5,9.6-3.8
		c0.3-1.1,0-1.8-0.4-2.2C216.3,92.6,210.3,92.1,209.7,91.4">
  </path>
  <polygon class="st0" points="291.3,87.8 304.1,87.8 303.4,90.2 296,90.2 295.3,92.6 302.2,92.6 301.5,94.9 294.6,94.9 293.9,97.2 
		301.4,97.2 300.6,99.6 287.7,99.6 	">
  </polygon>
  <path class="st0" d="M439.2,32.7l-12.3,26.5l0.4-26.5h-22.9l4.4,47.8c-0.6,2.8-1.5,4.4-3.2,5.1c-1.9,0.9-6.3,0.7-7.8,0.6l-0.3,0
		l-3.6,13l15.4,0c9.1,0,13.6-4.6,20.1-14.7l32.9-51.8H439.2z">
  </path>
  <path class="st0" d="M372.4,91.4c-0.1-0.1-0.1-0.4-0.1-0.5c0.2-0.6,0.9-1,2.1-1c0.7,0,1.8,0.1,2.1,0.3c0.3,0.2,0.4,0.6,0.3,1h5
		c0.6-2.1-0.7-3.5-6.4-3.4c-5.3,0-8.4,1.2-9.2,3.7c-0.2,0.7-0.2,1.5,0.3,2c1.4,1.4,7.6,1.9,8.1,2.7c0.1,0.1,0.1,0.3,0.1,0.5
		c-0.3,0.9-1.6,1.2-2.8,1.2c-0.7,0-1.7-0.2-2-0.5c-0.3-0.3-0.3-0.8-0.1-1.1l-5.2,0c-0.5,1.8-0.7,3.7,6.5,3.7c6.1,0,8.9-1.5,9.6-3.8
		c0.3-1.1,0-1.8-0.4-2.2C379.1,92.6,373.1,92.1,372.4,91.4">
  </path>
 </g>
</svg>